<mxfile host="Electron" modified="2022-01-24T10:22:54.811Z" agent="5.0 (Windows NT 10.0; Win64; x64) AppleWebKit/537.36 (KHTML, like Gecko) draw.io/15.7.3 Chrome/91.0.4472.164 Electron/13.6.1 Safari/537.36" etag="m0pBiT0rmTKddvL-lHI-" compressed="false" version="15.7.3" type="device">
  <diagram id="nNk9Rbr8bsMw7TYfAZ3T" name="Page-1">
    <mxGraphModel dx="1102" dy="875" grid="1" gridSize="10" guides="1" tooltips="1" connect="1" arrows="1" fold="1" page="1" pageScale="1" pageWidth="850" pageHeight="1100" math="0" shadow="0">
      <root>
        <mxCell id="0" />
        <mxCell id="1" parent="0" />
        <mxCell id="Czi3FkVOIS_JeKucCBtk-2" value="Finanzieller Schaden Einzelperson" style="verticalAlign=middle;align=center;fillColor=#FFFFFF;gradientColor=none;labelBackgroundColor=none;rounded=1;whiteSpace=wrap;" parent="1" vertex="1">
          <mxGeometry x="745" y="160" width="180" height="48" as="geometry" />
        </mxCell>
        <mxCell id="jm9SPHePHSSqHUqD5Rmr-9" style="edgeStyle=none;rounded=0;orthogonalLoop=1;jettySize=auto;endFill=1;startSize=6;endSize=6;" parent="1" source="Czi3FkVOIS_JeKucCBtk-3" target="Czi3FkVOIS_JeKucCBtk-8" edge="1">
          <mxGeometry relative="1" as="geometry" />
        </mxCell>
        <mxCell id="jm9SPHePHSSqHUqD5Rmr-10" style="edgeStyle=none;rounded=0;orthogonalLoop=1;jettySize=auto;endFill=1;startSize=6;endSize=6;" parent="1" source="Czi3FkVOIS_JeKucCBtk-3" target="Czi3FkVOIS_JeKucCBtk-9" edge="1">
          <mxGeometry relative="1" as="geometry" />
        </mxCell>
        <object label="Verletzung von Gesetzen und Verordnungen" id="Czi3FkVOIS_JeKucCBtk-3">
          <ag_attributes />
          <ag_computed_attributes />
          <mxCell style="verticalAlign=middle;align=center;fillColor=#FFFFFF;gradientColor=none;labelBackgroundColor=none;rounded=1;whiteSpace=wrap;" parent="1" vertex="1">
            <mxGeometry x="2477.5" y="160" width="180" height="48" as="geometry" />
          </mxCell>
        </object>
        <mxCell id="Czi3FkVOIS_JeKucCBtk-4" value="Finanzieller Schaden&#xa;Betreiber" style="verticalAlign=middle;align=center;fillColor=#FFFFFF;gradientColor=none;labelBackgroundColor=none;rounded=1;whiteSpace=wrap;" parent="1" vertex="1">
          <mxGeometry x="1310" y="160" width="180" height="48" as="geometry" />
        </mxCell>
        <mxCell id="Czi3FkVOIS_JeKucCBtk-5" value="Reputationsschaden Einzelperson" style="verticalAlign=middle;align=center;fillColor=#FFFFFF;gradientColor=none;labelBackgroundColor=none;rounded=1;whiteSpace=wrap;" parent="1" vertex="1">
          <mxGeometry x="521" y="160" width="180" height="48" as="geometry" />
        </mxCell>
        <mxCell id="Czi3FkVOIS_JeKucCBtk-7" value="Fahrscheindaten manipulieren" style="verticalAlign=middle;align=center;fillColor=#FFFFFF;gradientColor=none;labelBackgroundColor=none;rounded=0;whiteSpace=wrap;" parent="1" vertex="1">
          <mxGeometry x="723" y="320" width="224" height="48" as="geometry" />
        </mxCell>
        <mxCell id="jm9SPHePHSSqHUqD5Rmr-5" style="edgeStyle=none;rounded=0;orthogonalLoop=1;jettySize=auto;endFill=1;startSize=6;endSize=6;" parent="1" source="Czi3FkVOIS_JeKucCBtk-8" target="Czi3FkVOIS_JeKucCBtk-23" edge="1">
          <mxGeometry relative="1" as="geometry" />
        </mxCell>
        <mxCell id="jm9SPHePHSSqHUqD5Rmr-12" style="edgeStyle=none;rounded=0;orthogonalLoop=1;jettySize=auto;entryX=0.483;entryY=0.057;entryDx=0;entryDy=0;entryPerimeter=0;endFill=1;startSize=6;endSize=6;" parent="1" source="Czi3FkVOIS_JeKucCBtk-8" target="Czi3FkVOIS_JeKucCBtk-26" edge="1">
          <mxGeometry relative="1" as="geometry" />
        </mxCell>
        <mxCell id="Czi3FkVOIS_JeKucCBtk-8" value="Aufdeckung privater Daten&#xa;(Vorlieben, Gewohnheiten)" style="verticalAlign=middle;align=center;fillColor=#FFFFFF;gradientColor=none;labelBackgroundColor=none;rounded=0;whiteSpace=wrap;" parent="1" vertex="1">
          <mxGeometry x="2477.5" y="320" width="180" height="48" as="geometry" />
        </mxCell>
        <mxCell id="jm9SPHePHSSqHUqD5Rmr-6" style="edgeStyle=none;rounded=0;orthogonalLoop=1;jettySize=auto;endFill=1;startSize=6;endSize=6;" parent="1" source="Czi3FkVOIS_JeKucCBtk-9" target="Czi3FkVOIS_JeKucCBtk-21" edge="1">
          <mxGeometry relative="1" as="geometry" />
        </mxCell>
        <mxCell id="Czi3FkVOIS_JeKucCBtk-9" value="Individuellem Nutzer nachstellen" style="verticalAlign=middle;align=center;fillColor=#FFFFFF;gradientColor=none;labelBackgroundColor=none;rounded=0;whiteSpace=wrap;" parent="1" vertex="1">
          <mxGeometry x="2790.5" y="320" width="180" height="48" as="geometry" />
        </mxCell>
        <mxCell id="Czi3FkVOIS_JeKucCBtk-13" value="" style="endArrow=classic;rounded=0;spacingTop=0;spacingLeft=0;spacingBottom=0;spacingRight=0;endFill=1;endSize=6;startSize=6;" parent="1" source="Czi3FkVOIS_JeKucCBtk-4" target="Czi3FkVOIS_JeKucCBtk-7" edge="1">
          <mxGeometry width="50" height="50" relative="1" as="geometry">
            <mxPoint x="2463.2000000000003" y="360" as="sourcePoint" />
            <mxPoint x="1976.7999999999997" y="207.9999999999999" as="targetPoint" />
          </mxGeometry>
        </mxCell>
        <mxCell id="Czi3FkVOIS_JeKucCBtk-14" value="" style="endArrow=classic;rounded=0;spacingTop=0;spacingLeft=0;spacingBottom=0;spacingRight=0;endFill=1;endSize=6;startSize=6;" parent="1" source="Czi3FkVOIS_JeKucCBtk-2" target="Czi3FkVOIS_JeKucCBtk-7" edge="1">
          <mxGeometry width="50" height="50" relative="1" as="geometry">
            <mxPoint x="2268.76" y="360" as="sourcePoint" />
            <mxPoint x="2495.24" y="207.9999999999999" as="targetPoint" />
          </mxGeometry>
        </mxCell>
        <mxCell id="jm9SPHePHSSqHUqD5Rmr-1" style="edgeStyle=none;rounded=0;orthogonalLoop=1;jettySize=auto;endFill=1;startSize=6;endSize=6;" parent="1" source="Czi3FkVOIS_JeKucCBtk-16" target="Czi3FkVOIS_JeKucCBtk-138" edge="1">
          <mxGeometry relative="1" as="geometry" />
        </mxCell>
        <mxCell id="jm9SPHePHSSqHUqD5Rmr-2" style="edgeStyle=none;rounded=0;orthogonalLoop=1;jettySize=auto;endFill=1;startSize=6;endSize=6;" parent="1" source="Czi3FkVOIS_JeKucCBtk-16" target="Czi3FkVOIS_JeKucCBtk-94" edge="1">
          <mxGeometry relative="1" as="geometry" />
        </mxCell>
        <mxCell id="jm9SPHePHSSqHUqD5Rmr-3" style="edgeStyle=none;rounded=0;orthogonalLoop=1;jettySize=auto;endFill=1;startSize=6;endSize=6;" parent="1" source="Czi3FkVOIS_JeKucCBtk-16" target="Czi3FkVOIS_JeKucCBtk-79" edge="1">
          <mxGeometry relative="1" as="geometry" />
        </mxCell>
        <mxCell id="jm9SPHePHSSqHUqD5Rmr-4" style="edgeStyle=none;rounded=0;orthogonalLoop=1;jettySize=auto;endFill=1;startSize=6;endSize=6;" parent="1" source="Czi3FkVOIS_JeKucCBtk-16" target="Czi3FkVOIS_JeKucCBtk-25" edge="1">
          <mxGeometry relative="1" as="geometry" />
        </mxCell>
        <mxCell id="Czi3FkVOIS_JeKucCBtk-16" value="Verfügbarkeit des Dienstes beschränken" style="verticalAlign=middle;align=center;fillColor=#FFFFFF;gradientColor=none;labelBackgroundColor=none;rounded=0;whiteSpace=wrap;" parent="1" vertex="1">
          <mxGeometry x="1848" y="320" width="224" height="48" as="geometry" />
        </mxCell>
        <mxCell id="Czi3FkVOIS_JeKucCBtk-17" value="" style="endArrow=classic;rounded=0;spacingTop=0;spacingLeft=0;spacingBottom=0;spacingRight=0;endFill=1;endSize=6;startSize=6;" parent="1" source="Czi3FkVOIS_JeKucCBtk-4" target="Czi3FkVOIS_JeKucCBtk-16" edge="1">
          <mxGeometry width="50" height="50" relative="1" as="geometry">
            <mxPoint x="2166.7000000000003" y="320" as="sourcePoint" />
            <mxPoint x="2375.3" y="208" as="targetPoint" />
          </mxGeometry>
        </mxCell>
        <mxCell id="Czi3FkVOIS_JeKucCBtk-20" value="" style="endArrow=classic;rounded=0;spacingTop=0;spacingLeft=0;spacingBottom=0;spacingRight=0;endFill=1;endSize=6;startSize=6;" parent="1" source="Czi3FkVOIS_JeKucCBtk-5" target="Czi3FkVOIS_JeKucCBtk-7" edge="1">
          <mxGeometry width="50" height="50" relative="1" as="geometry">
            <mxPoint x="2853.5" y="320" as="sourcePoint" />
            <mxPoint x="2818.5" y="208" as="targetPoint" />
          </mxGeometry>
        </mxCell>
        <mxCell id="Czi3FkVOIS_JeKucCBtk-21" value="Kommunikation abhören" style="verticalAlign=middle;align=center;fillColor=#FFFFFF;gradientColor=none;labelBackgroundColor=none;rounded=0;whiteSpace=wrap;" parent="1" vertex="1">
          <mxGeometry x="2690" y="430" width="160" height="35" as="geometry" />
        </mxCell>
        <mxCell id="Czi3FkVOIS_JeKucCBtk-22" value="Persönliches Endgerät abhören" style="verticalAlign=middle;align=center;fillColor=#fee599;gradientColor=none;labelBackgroundColor=none;rounded=0;whiteSpace=wrap;" parent="1" vertex="1">
          <mxGeometry x="2926" y="597.5" width="144" height="35" as="geometry" />
        </mxCell>
        <mxCell id="Czi3FkVOIS_JeKucCBtk-23" value="Datensätze korrelieren" style="verticalAlign=middle;align=center;fillColor=#d7e3bf;gradientColor=none;labelBackgroundColor=none;rounded=0;whiteSpace=wrap;" parent="1" vertex="1">
          <mxGeometry x="2880" y="430" width="160" height="35" as="geometry" />
        </mxCell>
        <mxCell id="Czi3FkVOIS_JeKucCBtk-24" value="Ransomware einschleusen" style="verticalAlign=middle;align=center;fillColor=#d7e3bf;gradientColor=none;labelBackgroundColor=none;rounded=0;whiteSpace=wrap;" parent="1" vertex="1">
          <mxGeometry x="2310" y="597.5" width="144" height="35" as="geometry" />
        </mxCell>
        <mxCell id="Czi3FkVOIS_JeKucCBtk-25" value="Daten unlesbar machen" style="verticalAlign=middle;align=center;fillColor=#FFFFFF;gradientColor=none;labelBackgroundColor=none;rounded=0;whiteSpace=wrap;" parent="1" vertex="1">
          <mxGeometry x="2230" y="430" width="144" height="35" as="geometry" />
        </mxCell>
        <mxCell id="Czi3FkVOIS_JeKucCBtk-26" value="Daten ausleiten" style="verticalAlign=middle;align=center;fillColor=#FFFFFF;gradientColor=none;labelBackgroundColor=none;rounded=0;whiteSpace=wrap;" parent="1" vertex="1">
          <mxGeometry x="2477.5" y="430" width="144" height="35" as="geometry" />
        </mxCell>
        <mxCell id="Czi3FkVOIS_JeKucCBtk-28" value="Malware einschleusen" style="verticalAlign=middle;align=center;fillColor=#d7e3bf;gradientColor=none;labelBackgroundColor=none;rounded=0;whiteSpace=wrap;" parent="1" vertex="1">
          <mxGeometry x="2477.5" y="597.5" width="144" height="35" as="geometry" />
        </mxCell>
        <mxCell id="Czi3FkVOIS_JeKucCBtk-30" style="edgeStyle=none;startArrow=none;endArrow=classic;startSize=6;endSize=6;spacingTop=0;spacingBottom=0;spacingLeft=0;spacingRight=0;verticalAlign=middle;labelBackgroundColor=#ffffff;rounded=0;entryX=0.5;entryY=0;entryDx=0;entryDy=0;entryPerimeter=0;endFill=1;" parent="1" source="Czi3FkVOIS_JeKucCBtk-9" target="Czi3FkVOIS_JeKucCBtk-23" edge="1">
          <mxGeometry relative="1" as="geometry">
            <mxPoint as="offset" />
            <Array as="points" />
            <mxPoint x="2728" y="348" as="sourcePoint" />
          </mxGeometry>
        </mxCell>
        <mxCell id="Czi3FkVOIS_JeKucCBtk-31" value="" style="edgeStyle=none;startArrow=none;endArrow=classic;startSize=6;endSize=6;spacingTop=0;spacingBottom=0;spacingLeft=0;spacingRight=0;verticalAlign=middle;labelBackgroundColor=#ffffff;rounded=0;align=center;entryX=0.4652777777777778;entryY=0;entryDx=0;entryDy=0;entryPerimeter=0;endFill=1;" parent="1" source="Czi3FkVOIS_JeKucCBtk-26" target="Czi3FkVOIS_JeKucCBtk-28" edge="1">
          <mxGeometry relative="1" as="geometry">
            <mxPoint x="-1" y="-1" as="offset" />
            <Array as="points" />
          </mxGeometry>
        </mxCell>
        <mxCell id="Czi3FkVOIS_JeKucCBtk-34" value="" style="edgeStyle=none;startArrow=none;endArrow=classic;startSize=6;endSize=6;spacingTop=0;spacingBottom=0;spacingLeft=0;spacingRight=0;verticalAlign=middle;labelBackgroundColor=#ffffff;rounded=0;align=center;entryX=0.6111111111111112;entryY=0;entryDx=0;entryDy=0;entryPerimeter=0;endFill=1;" parent="1" source="Czi3FkVOIS_JeKucCBtk-26" target="Czi3FkVOIS_JeKucCBtk-24" edge="1">
          <mxGeometry relative="1" as="geometry">
            <mxPoint x="-1" as="offset" />
            <Array as="points" />
          </mxGeometry>
        </mxCell>
        <mxCell id="Czi3FkVOIS_JeKucCBtk-36" style="edgeStyle=none;startArrow=none;endArrow=classic;startSize=6;endSize=6;spacingTop=0;spacingBottom=0;spacingLeft=0;spacingRight=0;verticalAlign=middle;labelBackgroundColor=#ffffff;rounded=0;entryX=0.4583333333333333;entryY=0;entryDx=0;entryDy=0;entryPerimeter=0;endFill=1;" parent="1" source="Czi3FkVOIS_JeKucCBtk-25" target="Czi3FkVOIS_JeKucCBtk-24" edge="1">
          <mxGeometry relative="1" as="geometry">
            <mxPoint x="-1" y="-1" as="offset" />
            <Array as="points" />
          </mxGeometry>
        </mxCell>
        <mxCell id="Czi3FkVOIS_JeKucCBtk-39" style="edgeStyle=none;startArrow=none;endArrow=classic;startSize=6;endSize=6;spacingTop=0;spacingBottom=0;spacingLeft=0;spacingRight=0;verticalAlign=middle;labelBackgroundColor=#ffffff;rounded=0;entryX=0.43125;entryY=0;entryDx=0;entryDy=0;entryPerimeter=0;endFill=1;" parent="1" source="Czi3FkVOIS_JeKucCBtk-8" target="Czi3FkVOIS_JeKucCBtk-21" edge="1">
          <mxGeometry relative="1" as="geometry">
            <mxPoint x="-1" y="-1" as="offset" />
            <Array as="points" />
            <mxPoint x="2510.999999999999" y="348" as="sourcePoint" />
          </mxGeometry>
        </mxCell>
        <mxCell id="Czi3FkVOIS_JeKucCBtk-40" value="" style="edgeStyle=none;startArrow=none;endArrow=classic;startSize=6;endSize=6;spacingTop=0;spacingBottom=0;spacingLeft=0;spacingRight=0;verticalAlign=middle;labelBackgroundColor=#ffffff;rounded=0;align=center;endFill=1;" parent="1" source="Czi3FkVOIS_JeKucCBtk-21" target="Czi3FkVOIS_JeKucCBtk-75" edge="1">
          <mxGeometry x="0.5312" relative="1" as="geometry">
            <mxPoint as="offset" />
            <Array as="points" />
            <mxPoint x="2673" y="598" as="targetPoint" />
          </mxGeometry>
        </mxCell>
        <mxCell id="Czi3FkVOIS_JeKucCBtk-41" value="" style="edgeStyle=none;startArrow=none;endArrow=classic;startSize=6;endSize=6;spacingTop=0;spacingBottom=0;spacingLeft=0;spacingRight=0;verticalAlign=middle;labelBackgroundColor=#ffffff;rounded=0;align=center;endFill=1;" parent="1" source="Czi3FkVOIS_JeKucCBtk-21" target="Czi3FkVOIS_JeKucCBtk-22" edge="1">
          <mxGeometry relative="1" as="geometry">
            <mxPoint as="offset" />
            <Array as="points" />
          </mxGeometry>
        </mxCell>
        <mxCell id="Czi3FkVOIS_JeKucCBtk-45" value="" style="edgeStyle=none;startArrow=none;endArrow=classic;startSize=6;endSize=6;spacingTop=0;spacingBottom=0;spacingLeft=0;spacingRight=0;verticalAlign=middle;labelBackgroundColor=#ffffff;rounded=0;align=center;exitX=0.69;exitY=1.033;exitDx=0;exitDy=0;exitPerimeter=0;entryX=0.049;entryY=0.035;entryDx=0;entryDy=0;entryPerimeter=0;endFill=1;" parent="1" source="Czi3FkVOIS_JeKucCBtk-26" target="Czi3FkVOIS_JeKucCBtk-75" edge="1">
          <mxGeometry relative="1" as="geometry">
            <mxPoint x="-1" y="-1" as="offset" />
            <Array as="points" />
            <mxPoint x="2640" y="485" as="sourcePoint" />
            <mxPoint x="2638.5279999999993" y="598.6800000000001" as="targetPoint" />
          </mxGeometry>
        </mxCell>
        <mxCell id="Czi3FkVOIS_JeKucCBtk-46" value="" style="edgeStyle=none;startArrow=none;endArrow=classic;startSize=6;endSize=6;spacingTop=0;spacingBottom=0;spacingLeft=0;spacingRight=0;verticalAlign=middle;labelBackgroundColor=#ffffff;rounded=0;align=center;entryX=0.064;entryY=0.033;entryDx=0;entryDy=0;entryPerimeter=0;endFill=1;" parent="1" source="Czi3FkVOIS_JeKucCBtk-26" target="Czi3FkVOIS_JeKucCBtk-22" edge="1">
          <mxGeometry x="0.6488" y="-3" relative="1" as="geometry">
            <mxPoint as="offset" />
            <Array as="points" />
            <mxPoint x="2489.3600000000006" y="486.155" as="sourcePoint" />
            <mxPoint x="2648.5280000000002" y="608.6800000000001" as="targetPoint" />
          </mxGeometry>
        </mxCell>
        <mxCell id="Czi3FkVOIS_JeKucCBtk-75" value="Kommunikationswege abhören" style="verticalAlign=middle;align=center;fillColor=#fee599;gradientColor=none;labelBackgroundColor=none;rounded=0;whiteSpace=wrap;" parent="1" vertex="1">
          <mxGeometry x="2690" y="595" width="144" height="40" as="geometry" />
        </mxCell>
        <mxCell id="Czi3FkVOIS_JeKucCBtk-79" value="Verfügbarkeit des Datenbestandes beschränken" style="verticalAlign=middle;align=center;fillColor=#FFFFFF;gradientColor=none;labelBackgroundColor=none;rounded=0;whiteSpace=wrap;" parent="1" vertex="1">
          <mxGeometry x="1990" y="423.5" width="224" height="48" as="geometry" />
        </mxCell>
        <mxCell id="Czi3FkVOIS_JeKucCBtk-80" value="Daten löschen" style="verticalAlign=middle;align=center;fillColor=#d7e3bf;gradientColor=none;labelBackgroundColor=none;rounded=0;whiteSpace=wrap;" parent="1" vertex="1">
          <mxGeometry x="1952" y="597.5" width="120" height="35" as="geometry" />
        </mxCell>
        <mxCell id="Czi3FkVOIS_JeKucCBtk-81" value="(D)DoS" style="verticalAlign=middle;align=center;fillColor=#fee599;gradientColor=none;labelBackgroundColor=none;rounded=0;whiteSpace=wrap;" parent="1" vertex="1">
          <mxGeometry x="2132" y="597.5" width="120" height="35" as="geometry" />
        </mxCell>
        <mxCell id="Czi3FkVOIS_JeKucCBtk-91" value="" style="edgeStyle=none;startArrow=none;endArrow=classic;startSize=6;endSize=6;spacingTop=0;spacingBottom=0;spacingLeft=0;spacingRight=0;verticalAlign=middle;labelBackgroundColor=#ffffff;rounded=0;align=center;exitX=0.44642857142857145;exitY=1.0208333333333333;exitDx=0;exitDy=0;exitPerimeter=0;entryX=0.575;entryY=0;entryDx=0;entryDy=0;entryPerimeter=0;endFill=1;" parent="1" source="Czi3FkVOIS_JeKucCBtk-79" target="Czi3FkVOIS_JeKucCBtk-80" edge="1">
          <mxGeometry relative="1" as="geometry">
            <mxPoint x="-1" as="offset" />
            <Array as="points" />
          </mxGeometry>
        </mxCell>
        <mxCell id="Czi3FkVOIS_JeKucCBtk-92" value="" style="edgeStyle=none;startArrow=none;endArrow=classic;startSize=6;endSize=6;spacingTop=0;spacingBottom=0;spacingLeft=0;spacingRight=0;verticalAlign=middle;labelBackgroundColor=#ffffff;rounded=0;align=center;exitX=0.5669642857142857;exitY=1.0208333333333333;exitDx=0;exitDy=0;exitPerimeter=0;entryX=0.4083333333333333;entryY=0;entryDx=0;entryDy=0;entryPerimeter=0;endFill=1;" parent="1" source="Czi3FkVOIS_JeKucCBtk-79" target="Czi3FkVOIS_JeKucCBtk-81" edge="1">
          <mxGeometry relative="1" as="geometry">
            <mxPoint x="-1" y="-1" as="offset" />
            <Array as="points" />
          </mxGeometry>
        </mxCell>
        <mxCell id="Czi3FkVOIS_JeKucCBtk-94" value="Verfügbarkeit des Übertragungsnetzwerkes beschränken" style="verticalAlign=middle;align=center;fillColor=#FFFFFF;gradientColor=none;labelBackgroundColor=none;rounded=0;whiteSpace=wrap;" parent="1" vertex="1">
          <mxGeometry x="1730" y="423.5" width="224" height="48" as="geometry" />
        </mxCell>
        <mxCell id="Czi3FkVOIS_JeKucCBtk-95" value="5G/FRMCS Jamming" style="verticalAlign=middle;align=center;fillColor=#fee599;gradientColor=none;labelBackgroundColor=none;rounded=0;whiteSpace=wrap;" parent="1" vertex="1">
          <mxGeometry x="1790" y="597.5" width="120" height="35" as="geometry" />
        </mxCell>
        <mxCell id="Czi3FkVOIS_JeKucCBtk-96" value="" style="edgeStyle=none;startArrow=none;endArrow=classic;startSize=6;endSize=6;spacingTop=0;spacingBottom=0;spacingLeft=0;spacingRight=0;verticalAlign=middle;labelBackgroundColor=#ffffff;rounded=0;align=center;exitX=0.5625;exitY=1.0208333333333333;exitDx=0;exitDy=0;exitPerimeter=0;entryX=0.425;entryY=0;entryDx=0;entryDy=0;entryPerimeter=0;endFill=1;" parent="1" source="Czi3FkVOIS_JeKucCBtk-94" target="Czi3FkVOIS_JeKucCBtk-95" edge="1">
          <mxGeometry relative="1" as="geometry">
            <mxPoint x="-1" y="-1" as="offset" />
            <Array as="points" />
          </mxGeometry>
        </mxCell>
        <mxCell id="jm9SPHePHSSqHUqD5Rmr-7" style="edgeStyle=none;rounded=0;orthogonalLoop=1;jettySize=auto;endFill=1;startSize=6;endSize=6;" parent="1" source="Czi3FkVOIS_JeKucCBtk-102" target="Czi3FkVOIS_JeKucCBtk-9" edge="1">
          <mxGeometry relative="1" as="geometry" />
        </mxCell>
        <mxCell id="jm9SPHePHSSqHUqD5Rmr-8" style="edgeStyle=none;rounded=0;orthogonalLoop=1;jettySize=auto;endFill=1;startSize=6;endSize=6;" parent="1" source="Czi3FkVOIS_JeKucCBtk-102" target="Czi3FkVOIS_JeKucCBtk-8" edge="1">
          <mxGeometry relative="1" as="geometry" />
        </mxCell>
        <mxCell id="Czi3FkVOIS_JeKucCBtk-102" value="Verletzung der Privatsphäre" style="verticalAlign=middle;align=center;fillColor=#FFFFFF;gradientColor=none;labelBackgroundColor=none;rounded=1;whiteSpace=wrap;" parent="1" vertex="1">
          <mxGeometry x="2790.5" y="160" width="180" height="48" as="geometry" />
        </mxCell>
        <mxCell id="Czi3FkVOIS_JeKucCBtk-105" value="Manipulation des Datenbestandes" style="verticalAlign=middle;align=center;fillColor=#FFFFFF;gradientColor=none;labelBackgroundColor=none;rounded=0;whiteSpace=wrap;" parent="1" vertex="1">
          <mxGeometry x="1001" y="423.5" width="224" height="48" as="geometry" />
        </mxCell>
        <mxCell id="Czi3FkVOIS_JeKucCBtk-106" value="Manipulation der Übertragung" style="verticalAlign=middle;align=center;gradientColor=none;labelBackgroundColor=none;rounded=0;whiteSpace=wrap;fillColor=#FFFFFF;" parent="1" vertex="1">
          <mxGeometry x="681" y="423.5" width="224" height="48" as="geometry" />
        </mxCell>
        <mxCell id="Czi3FkVOIS_JeKucCBtk-107" style="edgeStyle=none;startArrow=none;endArrow=classic;startSize=6;endSize=6;spacingTop=0;spacingBottom=0;spacingLeft=0;spacingRight=0;verticalAlign=middle;labelBackgroundColor=#ffffff;rounded=0;endFill=1;" parent="1" source="Czi3FkVOIS_JeKucCBtk-7" target="Czi3FkVOIS_JeKucCBtk-105" edge="1">
          <mxGeometry relative="1" as="geometry">
            <mxPoint y="-1" as="offset" />
            <Array as="points" />
            <mxPoint x="1094" y="385" as="sourcePoint" />
          </mxGeometry>
        </mxCell>
        <mxCell id="Czi3FkVOIS_JeKucCBtk-108" style="edgeStyle=none;startArrow=none;endArrow=classic;startSize=6;endSize=6;spacingTop=0;spacingBottom=0;spacingLeft=0;spacingRight=0;verticalAlign=middle;labelBackgroundColor=#ffffff;rounded=0;endFill=1;" parent="1" source="Czi3FkVOIS_JeKucCBtk-7" target="Czi3FkVOIS_JeKucCBtk-106" edge="1">
          <mxGeometry relative="1" as="geometry">
            <mxPoint as="offset" />
            <Array as="points" />
            <mxPoint x="1238" y="385" as="sourcePoint" />
          </mxGeometry>
        </mxCell>
        <mxCell id="Czi3FkVOIS_JeKucCBtk-111" value="Malware einschleusen" style="verticalAlign=middle;align=center;fillColor=#d7e3bf;gradientColor=none;labelBackgroundColor=none;rounded=0;whiteSpace=wrap;" parent="1" vertex="1">
          <mxGeometry x="1131" y="597.5" width="144" height="35" as="geometry" />
        </mxCell>
        <mxCell id="Czi3FkVOIS_JeKucCBtk-112" value="" style="edgeStyle=none;startArrow=none;endArrow=classic;startSize=6;endSize=6;spacingTop=0;spacingBottom=0;spacingLeft=0;spacingRight=0;verticalAlign=middle;labelBackgroundColor=#ffffff;rounded=0;align=center;endFill=1;" parent="1" source="Czi3FkVOIS_JeKucCBtk-105" target="Czi3FkVOIS_JeKucCBtk-111" edge="1">
          <mxGeometry relative="1" as="geometry">
            <mxPoint x="-1" as="offset" />
            <Array as="points" />
            <mxPoint x="1423" y="627.4999999999998" as="sourcePoint" />
            <mxPoint x="1451" y="670" as="targetPoint" />
          </mxGeometry>
        </mxCell>
        <mxCell id="Czi3FkVOIS_JeKucCBtk-114" value="FRMCS Kommunikation manipulieren" style="verticalAlign=middle;align=center;fillColor=#fee599;gradientColor=none;labelBackgroundColor=none;rounded=0;whiteSpace=wrap;" parent="1" vertex="1">
          <mxGeometry x="601" y="595" width="144" height="40" as="geometry" />
        </mxCell>
        <mxCell id="Czi3FkVOIS_JeKucCBtk-115" value="Drahtlose Nahfeld-Kommunikation manipulieren" style="verticalAlign=middle;align=center;fillColor=#fee599;gradientColor=none;labelBackgroundColor=none;rounded=0;whiteSpace=wrap;" parent="1" vertex="1">
          <mxGeometry x="761" y="592.75" width="144" height="44.5" as="geometry" />
        </mxCell>
        <mxCell id="Czi3FkVOIS_JeKucCBtk-116" style="edgeStyle=none;startArrow=none;endArrow=classic;startSize=6;endSize=6;spacingTop=0;spacingBottom=0;spacingLeft=0;spacingRight=0;verticalAlign=middle;labelBackgroundColor=#ffffff;rounded=0;endFill=1;" parent="1" source="Czi3FkVOIS_JeKucCBtk-106" target="Czi3FkVOIS_JeKucCBtk-114" edge="1">
          <mxGeometry relative="1" as="geometry">
            <mxPoint as="offset" />
            <Array as="points" />
            <mxPoint x="1087.0242857142855" y="488" as="sourcePoint" />
            <mxPoint x="950.9957142857143" y="580" as="targetPoint" />
          </mxGeometry>
        </mxCell>
        <mxCell id="Czi3FkVOIS_JeKucCBtk-117" style="edgeStyle=none;startArrow=none;endArrow=classic;startSize=6;endSize=6;spacingTop=0;spacingBottom=0;spacingLeft=0;spacingRight=0;verticalAlign=middle;labelBackgroundColor=#ffffff;rounded=0;endFill=1;" parent="1" source="Czi3FkVOIS_JeKucCBtk-106" target="Czi3FkVOIS_JeKucCBtk-115" edge="1">
          <mxGeometry relative="1" as="geometry">
            <mxPoint as="offset" />
            <Array as="points" />
            <mxPoint x="1107.101045296167" y="498.0000000000001" as="sourcePoint" />
            <mxPoint x="1028.7491289198604" y="597.5" as="targetPoint" />
          </mxGeometry>
        </mxCell>
        <mxCell id="Czi3FkVOIS_JeKucCBtk-118" value="Manipulation der Sensoren" style="verticalAlign=middle;align=center;gradientColor=none;labelBackgroundColor=none;rounded=0;whiteSpace=wrap;fillColor=#FFFFFF;" parent="1" vertex="1">
          <mxGeometry x="391" y="423.5" width="224" height="48" as="geometry" />
        </mxCell>
        <mxCell id="Czi3FkVOIS_JeKucCBtk-119" value="GNSS&#xa;Spoofing" style="verticalAlign=middle;align=center;fillColor=#fee599;gradientColor=none;labelBackgroundColor=none;rounded=0;whiteSpace=wrap;" parent="1" vertex="1">
          <mxGeometry x="471" y="597.5" width="120" height="35" as="geometry" />
        </mxCell>
        <mxCell id="Czi3FkVOIS_JeKucCBtk-120" style="edgeStyle=none;startArrow=none;endArrow=classic;startSize=6;endSize=6;spacingTop=0;spacingBottom=0;spacingLeft=0;spacingRight=0;verticalAlign=middle;labelBackgroundColor=#ffffff;rounded=0;endFill=1;" parent="1" source="Czi3FkVOIS_JeKucCBtk-118" target="Czi3FkVOIS_JeKucCBtk-119" edge="1">
          <mxGeometry relative="1" as="geometry">
            <mxPoint as="offset" />
            <Array as="points" />
            <mxPoint x="892.1710452961672" y="495" as="sourcePoint" />
            <mxPoint x="813.8191289198605" y="594.5" as="targetPoint" />
          </mxGeometry>
        </mxCell>
        <mxCell id="Czi3FkVOIS_JeKucCBtk-121" style="edgeStyle=none;startArrow=none;endArrow=classic;startSize=6;endSize=6;spacingTop=0;spacingBottom=0;spacingLeft=0;spacingRight=0;verticalAlign=middle;labelBackgroundColor=#ffffff;rounded=0;endFill=1;" parent="1" source="Czi3FkVOIS_JeKucCBtk-7" target="Czi3FkVOIS_JeKucCBtk-118" edge="1">
          <mxGeometry relative="1" as="geometry">
            <mxPoint as="offset" />
            <Array as="points" />
            <mxPoint x="1297.514285714286" y="358" as="sourcePoint" />
            <mxPoint x="1161.4857142857145" y="450" as="targetPoint" />
          </mxGeometry>
        </mxCell>
        <mxCell id="Czi3FkVOIS_JeKucCBtk-122" value="Einfügen und Ausnutzen von Backdoors" style="verticalAlign=middle;align=center;fillColor=#d7e3bf;gradientColor=none;labelBackgroundColor=none;rounded=0;whiteSpace=wrap;" parent="1" vertex="1">
          <mxGeometry x="921" y="595" width="188" height="40" as="geometry" />
        </mxCell>
        <mxCell id="Czi3FkVOIS_JeKucCBtk-123" style="edgeStyle=none;startArrow=none;endArrow=classic;startSize=6;endSize=6;spacingTop=0;spacingBottom=0;spacingLeft=0;spacingRight=0;verticalAlign=middle;labelBackgroundColor=#ffffff;rounded=0;entryX=0.35106382978723405;entryY=0;entryDx=0;entryDy=0;entryPerimeter=0;endFill=1;" parent="1" source="Czi3FkVOIS_JeKucCBtk-105" target="Czi3FkVOIS_JeKucCBtk-122" edge="1">
          <mxGeometry relative="1" as="geometry">
            <mxPoint as="offset" />
            <Array as="points" />
            <mxPoint x="998" y="492" as="sourcePoint" />
          </mxGeometry>
        </mxCell>
        <mxCell id="Czi3FkVOIS_JeKucCBtk-138" value="Manipulation der Sensoren" style="verticalAlign=middle;align=center;gradientColor=none;labelBackgroundColor=none;rounded=0;whiteSpace=wrap;fillColor=#FFFFFF;" parent="1" vertex="1">
          <mxGeometry x="1400" y="423.5" width="224" height="48" as="geometry" />
        </mxCell>
        <mxCell id="Czi3FkVOIS_JeKucCBtk-139" value="Kameras manipulieren" style="verticalAlign=middle;align=center;gradientColor=none;labelBackgroundColor=none;rounded=0;whiteSpace=wrap;fillColor=#FEE599;" parent="1" vertex="1">
          <mxGeometry x="1310" y="597.5" width="120" height="35" as="geometry" />
        </mxCell>
        <mxCell id="Czi3FkVOIS_JeKucCBtk-141" value="GNSS&#xa;Jamming" style="verticalAlign=middle;align=center;fillColor=#fee599;gradientColor=none;labelBackgroundColor=none;rounded=0;whiteSpace=wrap;" parent="1" vertex="1">
          <mxGeometry x="1600" y="597.5" width="120" height="35" as="geometry" />
        </mxCell>
        <mxCell id="Czi3FkVOIS_JeKucCBtk-142" value="Fahrgastzählung&#xa;blockieren" style="verticalAlign=middle;align=center;fillColor=#d7e3bf;gradientColor=none;labelBackgroundColor=none;rounded=0;whiteSpace=wrap;" parent="1" vertex="1">
          <mxGeometry x="1460" y="597.5" width="120" height="35" as="geometry" />
        </mxCell>
        <mxCell id="Czi3FkVOIS_JeKucCBtk-143" style="edgeStyle=none;startArrow=none;endArrow=classic;startSize=6;endSize=6;spacingTop=0;spacingBottom=0;spacingLeft=0;spacingRight=0;verticalAlign=middle;labelBackgroundColor=#ffffff;rounded=0;entryX=0.612;entryY=-0.034;entryDx=0;entryDy=0;entryPerimeter=0;endFill=1;" parent="1" source="Czi3FkVOIS_JeKucCBtk-138" target="Czi3FkVOIS_JeKucCBtk-139" edge="1">
          <mxGeometry relative="1" as="geometry">
            <mxPoint x="-1" y="-1" as="offset" />
            <Array as="points" />
            <mxPoint x="1820" y="802" as="sourcePoint" />
          </mxGeometry>
        </mxCell>
        <mxCell id="Czi3FkVOIS_JeKucCBtk-147" style="edgeStyle=none;startArrow=none;endArrow=classic;startSize=6;endSize=6;spacingTop=0;spacingBottom=0;spacingLeft=0;spacingRight=0;verticalAlign=middle;labelBackgroundColor=#ffffff;rounded=0;endFill=1;" parent="1" source="Czi3FkVOIS_JeKucCBtk-138" target="Czi3FkVOIS_JeKucCBtk-141" edge="1">
          <mxGeometry relative="1" as="geometry">
            <mxPoint y="-1" as="offset" />
            <Array as="points" />
            <mxPoint x="1761" y="802" as="targetPoint" />
            <mxPoint x="1678" y="540" as="sourcePoint" />
          </mxGeometry>
        </mxCell>
        <mxCell id="Czi3FkVOIS_JeKucCBtk-149" style="edgeStyle=none;startArrow=none;endArrow=classic;startSize=6;endSize=6;spacingTop=0;spacingBottom=0;spacingLeft=0;spacingRight=0;verticalAlign=middle;labelBackgroundColor=#ffffff;rounded=0;endFill=1;" parent="1" source="Czi3FkVOIS_JeKucCBtk-138" target="Czi3FkVOIS_JeKucCBtk-142" edge="1">
          <mxGeometry relative="1" as="geometry">
            <mxPoint x="-1" y="-1" as="offset" />
            <Array as="points" />
            <mxPoint x="1560" y="600" as="targetPoint" />
          </mxGeometry>
        </mxCell>
        <mxCell id="Czi3FkVOIS_JeKucCBtk-152" value="Persönliche Endgeräte manipulieren" style="verticalAlign=middle;align=center;fillColor=#FFFFFF;gradientColor=none;labelBackgroundColor=none;rounded=0;whiteSpace=wrap;" parent="1" vertex="1">
          <mxGeometry x="301.00000000000006" y="591" width="120" height="48" as="geometry" />
        </mxCell>
        <mxCell id="Czi3FkVOIS_JeKucCBtk-153" style="edgeStyle=none;startArrow=none;endArrow=classic;startSize=6;endSize=6;spacingTop=0;spacingBottom=0;spacingLeft=0;spacingRight=0;verticalAlign=middle;labelBackgroundColor=#ffffff;rounded=0;endFill=1;" parent="1" source="Czi3FkVOIS_JeKucCBtk-118" target="Czi3FkVOIS_JeKucCBtk-152" edge="1">
          <mxGeometry relative="1" as="geometry">
            <mxPoint y="-1" as="offset" />
            <Array as="points" />
            <mxPoint x="502.7668817204303" y="508" as="sourcePoint" />
          </mxGeometry>
        </mxCell>
        <mxCell id="Czi3FkVOIS_JeKucCBtk-155" value="Ticket manipulieren" style="verticalAlign=middle;align=center;fillColor=#fee599;gradientColor=none;labelBackgroundColor=none;rounded=0;whiteSpace=wrap;" parent="1" vertex="1">
          <mxGeometry x="301" y="720" width="120" height="35" as="geometry" />
        </mxCell>
        <mxCell id="Czi3FkVOIS_JeKucCBtk-156" style="edgeStyle=none;startArrow=none;endArrow=classic;startSize=6;endSize=6;spacingTop=0;spacingBottom=0;spacingLeft=0;spacingRight=0;verticalAlign=middle;labelBackgroundColor=#ffffff;rounded=0;endFill=1;" parent="1" source="Czi3FkVOIS_JeKucCBtk-152" target="Czi3FkVOIS_JeKucCBtk-155" edge="1">
          <mxGeometry relative="1" as="geometry">
            <mxPoint y="-1" as="offset" />
            <Array as="points" />
            <mxPoint x="490.28" y="508" as="sourcePoint" />
            <mxPoint x="393.72" y="610" as="targetPoint" />
          </mxGeometry>
        </mxCell>
        <mxCell id="Zq65Q2nqjFuZndYNnhfk-1" value="Angriffsziel&#xa;Kontaklose Fahrscheinkontrolle" style="verticalAlign=middle;align=center;fillColor=#FFFFFF;gradientColor=none;labelBackgroundColor=none;rounded=0;whiteSpace=wrap;shape=trapezoid;size=0.07500000000000001;" parent="1" vertex="1">
          <mxGeometry x="1600" y="50" width="300" height="60" as="geometry" />
        </mxCell>
      </root>
    </mxGraphModel>
  </diagram>
</mxfile>
